<svg xmlns="http://www.w3.org/2000/svg" id="7f288879-70ff-4d7a-843d-c7abbc25848d" data-name="antiproxies logo" viewBox="0 0 254.19 42.74"><defs><style>.e014fcf1-68c8-40d3-8e9e-8ee1aa8b35db{fill:#2e454d}.e59fbdfd-8ef2-4090-b178-50c94223e67d{fill:#fff}.a598b7d9-c64e-4aac-ba2e-5158e51c1350{fill:#19a9f3}.ecf81411-06be-4c56-9fe5-2f475313b1a9{fill:#1d1d1b}</style></defs><title>antiproxies-dark</title><path d="M27.11,9.11" class="e014fcf1-68c8-40d3-8e9e-8ee1aa8b35db" transform="translate(-5.96 -9.08)"/><path d="M8.85,21.43c3.68,3.69,7.75,1.32,12.23,1.23,6.05-.11,12.3-2,18.36-.59l-2.87-2.21q.07-1.83-.29.54-.33,1.62-.74,3.22a20,20,0,0,1-2.27,5.64c-2,3.1-4.87,5.53-7,8.58-2.4,3.49,1.57,8.22,5.43,7.06a15.93,15.93,0,0,0,6.85-4c4.46-4.34-2.24-10.95-6.8-6.8-.56.51-5.08,3.92-5,4.41l2.67.57L29,37.89a7.5,7.5,0,0,0-1-2.3,9.79,9.79,0,0,0-8.56-5.08c-2.89,0-5.35,1.53-5.8,4.52-.64,4.14,2.19,7.07,5.42,9.09s8.69-1.44,7.06-5.43c-1.24-3-2.24-6.39-3.86-9.24a30.73,30.73,0,0,0-2.15-2.63c-.38-.53-.05-3.34-.48-1.11L16.3,29.08c2.67-.67,6.5-.1,9.28-.14l4.73,0H32.2q3.3.43.9-.48L31.69,25q1.84-2.93-1.35-1.58L26.47,24a22.13,22.13,0,0,0-5.07.89c-3,1.2-4.82,4.05-3.9,7.26,1.67,5.86,10.84,7.66,15.66,5.38,5.59-2.65.72-10.94-4.85-8.3q1.57-.25-.95-.55a6.4,6.4,0,0,1-2.63-1.46l2.21,2.87-.33-1-1.24,4.68c.4-.48,5-.7,6.56-.91,2.07-.3,4.51-.38,6.31-1.6,3.15-2.13,4.25-6.63,1.66-9.63s-7-2.35-10.53-2.33c-4.88,0-10.87-.68-15.62.52a4.73,4.73,0,0,0-3.36,3.36,14,14,0,0,0,1.29,8.26A29.23,29.23,0,0,0,14,34.3c1.33,1.92,2,4.78,2.9,6.94l7.06-5.43-1.28,2L19.79,40c-.34.1,1.46,4.49,1.81,5A6.15,6.15,0,0,0,26.09,48c5.12.73,9.12-4.07,12.5-7.14l-6.8-6.8a4.22,4.22,0,0,1-2.61,1.55l5.43,7.06c3.2-4.65,7.2-7.9,9.22-13.38,1.46-4,3.84-10.48,1-14.31-3.11-4.25-11.65-3.19-16.23-2.77-2.82.26-5.57.79-8.41.83C18,13.09,15.1,14.17,13,14l3.4,1.41-.77-.77c-4.38-4.39-11.18,2.41-6.8,6.8Z" class="34b7471c-a80f-4bdc-a824-777846be5228" transform="translate(-5.96 -9.08)"/><path d="M12.38,18.24c6.46-.71,13.54.13,19.9,1.29.1,0,.14-.14,0-.15-6.42-1.17-13.45-2-19.95-1.29-.1,0-.1.17,0,.16Z" class="34b7471c-a80f-4bdc-a824-777846be5228" transform="translate(-5.96 -9.08)"/><path d="M41.32,31.47a49.26,49.26,0,0,0,2.32-10.39,63.16,63.16,0,0,0,.44-6.6h0v0a30.86,30.86,0,0,1-6.64.72,29.49,29.49,0,0,1-10.32-1.83V9.11c1,.57,9.87,4.59,20.75,0l0,0C48,10.56,51.1,43.76,27.11,51.82V47.58l.63-.27a22.35,22.35,0,0,0,2.19-1.1C35.83,42.83,39.3,37.26,41.32,31.47Z" class="e014fcf1-68c8-40d3-8e9e-8ee1aa8b35db" transform="translate(-5.96 -9.08)"/><path d="M47.89,9.17l0,0h0Z" class="2a234af3-8fdc-4707-97c0-a4e7c966467c" transform="translate(-5.96 -9.08)"/><path d="M44.07,14.48h0a63.16,63.16,0,0,1-.44,6.6A64.73,64.73,0,0,0,44.07,14.48Z" class="e59fbdfd-8ef2-4090-b178-50c94223e67d" transform="translate(-5.96 -9.08)"/><path d="M27.11,47.58v4.24h0A26.48,26.48,0,0,1,18.47,47L16.1,44.7c-12-13-10-35.62-10-35.62a26.49,26.49,0,0,0,21,0h0v4.22h0a30.36,30.36,0,0,1-10.34,1.8,30.71,30.71,0,0,1-6.62-.72c0,1,.07,2.08.15,3.26.66,9.54,3.81,24.64,16.69,30Z" class="e014fcf1-68c8-40d3-8e9e-8ee1aa8b35db" transform="translate(-5.96 -9.08)"/><path d="M16.1,44.7,18.47,47A26.76,26.76,0,0,1,16.1,44.7Z" class="e014fcf1-68c8-40d3-8e9e-8ee1aa8b35db" transform="translate(-5.96 -9.08)"/><ellipse cx="21.15" cy="21.26" class="e59fbdfd-8ef2-4090-b178-50c94223e67d" rx="8.6" ry="8.23"/><ellipse cx="21.15" cy="21.26" class="a598b7d9-c64e-4aac-ba2e-5158e51c1350" rx="7.34" ry="7.02"/><ellipse cx="21.15" cy="21.26" class="e59fbdfd-8ef2-4090-b178-50c94223e67d" rx="5.85" ry="5.6"/><ellipse cx="21.15" cy="21.26" class="0e003368-8399-4b40-b573-e84d921ec3dc" rx="5.85" ry="5.6"/><ellipse cx="21.15" cy="21.26" class="ecf81411-06be-4c56-9fe5-2f475313b1a9" rx="2.41" ry="2.31"/><ellipse cx="22.69" cy="20.33" class="e59fbdfd-8ef2-4090-b178-50c94223e67d" rx="1.17" ry="1.12"/><polyline points="21.15 .03 21.44 .18 22.01 .44 22.36 .58 22.94 .8 23.5 .99 24.38 1.26 25.4 1.52 26.75 1.8 27.23 1.88 28.08 2 28.73 2.08 30.06 2.18 31.23 2.21 32.24 2.19 32.74 2.17 33.48 2.12 34.21 2.06 35.08 1.99 36.15 1.8 37.06 1.6 38.16 1.33 38.88 1.13 39.82 .84 40.4 .64 41.22 .33 41.74 .12 41.9 .05 41.94 .09 42 .91 42.06 1.76 42.11 3.1 42.13 4.53 42.12 6.2 42.1 6.96 42.07 7.82 42.03 8.58 41.92 10.27 41.75 12.04 41.58 13.47 41.45 14.36 41.21 15.88 41.02 16.94 40.81 17.94 40.59 18.93 40.4 19.73 40.22 20.41 39.98 21.28 39.73 22.11 39.4 23.17 39.05 24.15 38.73 25.03 38.38 25.89 37.91 26.98 37.49 27.89 37.04 28.79 36.63 29.56 36.11 30.47 35.6 31.3 34.91 32.34 34.44 33.02 33.96 33.64 33.46 34.27 32.85 35 32.26 35.64 31.72 36.21 31.25 36.67 30.56 37.31 29.75 38.01 29.01 38.6 28.33 39.1 27.61 39.6 27 39.99 26.21 40.47 25.53 40.85 24.55 41.35 23.84 41.68 23.19 41.97 22.44 42.27 21.71 42.54 21.14 42.74 21.15 .03 21.15 .03" class="9b9d1b61-ce40-48db-9bab-32cc8d70b691"/><path d="M62.73,36.51H50.36L47.57,44h-2.3L55.53,17h2.1L67.82,44h-2.3Zm-11.63-2H62L56.63,19.91h-.11Z" class="e014fcf1-68c8-40d3-8e9e-8ee1aa8b35db" transform="translate(-5.96 -9.08)"/><path d="M73.31,24l.2,3.51a7.15,7.15,0,0,1,2.61-2.87,7.27,7.27,0,0,1,3.89-1,6.19,6.19,0,0,1,5,2q1.71,2,1.71,6.23V44H84.46V31.81q0-3.46-1.29-4.89a4.68,4.68,0,0,0-3.66-1.43,5.74,5.74,0,0,0-3.81,1.24A6.88,6.88,0,0,0,73.57,30V44H71.34V24Z" class="e014fcf1-68c8-40d3-8e9e-8ee1aa8b35db" transform="translate(-5.96 -9.08)"/><path d="M96,18.83V24h4.42v1.82H96V38.87a4.27,4.27,0,0,0,.71,2.79,2.39,2.39,0,0,0,1.9.83q.54,0,1,0t1.18-.16l.33,1.65a5.8,5.8,0,0,1-1.35.37,10,10,0,0,1-1.6.13,4.16,4.16,0,0,1-3.29-1.34,6.3,6.3,0,0,1-1.18-4.23V25.79H90.27V24h3.47V18.83Z" class="e014fcf1-68c8-40d3-8e9e-8ee1aa8b35db" transform="translate(-5.96 -9.08)"/><path d="M107.6,18.22h-2.21V15.1h2.21Zm0,25.83h-2.21V24h2.21Z" class="e014fcf1-68c8-40d3-8e9e-8ee1aa8b35db" transform="translate(-5.96 -9.08)"/><path d="M115.52,32.45V44h-1V17H123a9.13,9.13,0,0,1,6.46,2.11,7.28,7.28,0,0,1,2.26,5.59,7.31,7.31,0,0,1-2.25,5.62q-2.25,2.1-6.47,2.1Zm0-1H123q3.84,0,5.78-1.91a6.42,6.42,0,0,0,1.94-4.77,6.5,6.5,0,0,0-1.93-4.83Q126.82,18,123,18h-7.44Z" class="e014fcf1-68c8-40d3-8e9e-8ee1aa8b35db" transform="translate(-5.96 -9.08)"/><path d="M145.67,24.69l-1.3-.11A5.81,5.81,0,0,0,140,26.32a8.51,8.51,0,0,0-2.18,4.57V44h-1V24h.82l.19,3.49v.69a7.24,7.24,0,0,1,2.49-3.35,6.74,6.74,0,0,1,4.06-1.2,4.49,4.49,0,0,1,.79.06c.24,0,.45.09.62.14Z" class="e014fcf1-68c8-40d3-8e9e-8ee1aa8b35db" transform="translate(-5.96 -9.08)"/><path d="M147.49,33.62a10.59,10.59,0,0,1,2.44-7.22,8.59,8.59,0,0,1,12.69,0,10.6,10.6,0,0,1,2.44,7.22v.78a10.62,10.62,0,0,1-2.44,7.24,8.58,8.58,0,0,1-12.68,0,10.59,10.59,0,0,1-2.45-7.24Zm1,.78a9.89,9.89,0,0,0,2.12,6.41,7.42,7.42,0,0,0,11.34,0,9.9,9.9,0,0,0,2.12-6.4v-.78a9.85,9.85,0,0,0-2.13-6.35,7.35,7.35,0,0,0-11.32,0,9.91,9.91,0,0,0-2.12,6.35Z" class="e014fcf1-68c8-40d3-8e9e-8ee1aa8b35db" transform="translate(-5.96 -9.08)"/><path d="M175.36,32.88l6.4-8.91H183L176,33.75,183.39,44h-1.24l-6.81-9.43L168.55,44h-1.24l7.42-10.3L167.68,24h1.26Z" class="e014fcf1-68c8-40d3-8e9e-8ee1aa8b35db" transform="translate(-5.96 -9.08)"/><path d="M188.87,17.66h-1V15.1h1Zm0,26.38h-1V24h1Z" class="e014fcf1-68c8-40d3-8e9e-8ee1aa8b35db" transform="translate(-5.96 -9.08)"/><path d="M202.3,44.44a7.72,7.72,0,0,1-5.93-2.77,9.93,9.93,0,0,1-2.5-6.89V33.58a10.64,10.64,0,0,1,2.41-7.15,7.53,7.53,0,0,1,6-2.83,7.35,7.35,0,0,1,5.54,2.23,8.26,8.26,0,0,1,2.14,6v1.54h-15v1.43A9.18,9.18,0,0,0,197,40.92a6.66,6.66,0,0,0,5.29,2.51,10.06,10.06,0,0,0,3.76-.61A6.79,6.79,0,0,0,208.65,41l.54.78a7.64,7.64,0,0,1-2.88,2A10.78,10.78,0,0,1,202.3,44.44Zm-.06-19.83a6.44,6.44,0,0,0-5,2.18A8.87,8.87,0,0,0,195,32.23l.06.11h13.84v-.61a7.27,7.27,0,0,0-1.86-5.09A6.23,6.23,0,0,0,202.25,24.6Z" class="e014fcf1-68c8-40d3-8e9e-8ee1aa8b35db" transform="translate(-5.96 -9.08)"/><path d="M226.91,39.13a4,4,0,0,0-1.36-2.9,10.05,10.05,0,0,0-4.76-2.05,13.73,13.73,0,0,1-5.19-2,4.15,4.15,0,0,1-1.6-3.55,4.45,4.45,0,0,1,1.82-3.61,7.62,7.62,0,0,1,4.9-1.46,8,8,0,0,1,5.23,1.56,4.75,4.75,0,0,1,1.82,4.06l0,.11h-.85A4.21,4.21,0,0,0,225.21,26a6.81,6.81,0,0,0-4.5-1.38,6.49,6.49,0,0,0-4.27,1.22A3.6,3.6,0,0,0,215,28.63a3.51,3.51,0,0,0,1.22,2.69q1.22,1.11,4.86,1.95a13.25,13.25,0,0,1,5.09,2.12,4.49,4.49,0,0,1,1.74,3.76A4.58,4.58,0,0,1,226,43a8.25,8.25,0,0,1-5.12,1.47,8.69,8.69,0,0,1-5.5-1.57,4.35,4.35,0,0,1-1.87-3.81l0-.11h.82a3.94,3.94,0,0,0,2,3.43,9,9,0,0,0,4.47,1.06,6.9,6.9,0,0,0,4.42-1.3A3.78,3.78,0,0,0,226.91,39.13Z" class="e014fcf1-68c8-40d3-8e9e-8ee1aa8b35db" transform="translate(-5.96 -9.08)"/><path d="M234.31,47V37h2.91a3.93,3.93,0,0,1,2.42.65,2.31,2.31,0,0,1,.87,2,2.14,2.14,0,0,1-.43,1.33,2.23,2.23,0,0,1-1.18.79,2.4,2.4,0,0,1,1.48.85,2.44,2.44,0,0,1,.57,1.59,2.51,2.51,0,0,1-.86,2,3.51,3.51,0,0,1-2.31.72Zm.81-5.49h2.29a2.61,2.61,0,0,0,1.67-.47,1.69,1.69,0,0,0,.59-1.4,1.66,1.66,0,0,0-.63-1.42,3,3,0,0,0-1.83-.48h-2.09Zm0,.7v4.09h2.63a2.56,2.56,0,0,0,1.73-.54,1.89,1.89,0,0,0,.63-1.52,2,2,0,0,0-.57-1.46,2.24,2.24,0,0,0-1.66-.57Z" class="e014fcf1-68c8-40d3-8e9e-8ee1aa8b35db" transform="translate(-5.96 -9.08)"/><path d="M245.53,47.11a3,3,0,0,1-2.31-1,3.74,3.74,0,0,1-.92-2.6v-.38a3.86,3.86,0,0,1,.91-2.63,2.83,2.83,0,0,1,2.21-1,2.74,2.74,0,0,1,2.14.86,3.29,3.29,0,0,1,.78,2.3v.7h-5.22v.2a3.26,3.26,0,0,0,.66,2.09,2.11,2.11,0,0,0,1.74.84,3.57,3.57,0,0,0,1.31-.21,2.56,2.56,0,0,0,.92-.61l.35.56a3,3,0,0,1-1.06.7A4,4,0,0,1,245.53,47.11Zm-.1-7a2,2,0,0,0-1.52.69,3,3,0,0,0-.72,1.73v0h4.33v-.2a2.36,2.36,0,0,0-.57-1.61A1.94,1.94,0,0,0,245.43,40.13Z" class="e014fcf1-68c8-40d3-8e9e-8ee1aa8b35db" transform="translate(-5.96 -9.08)"/><path d="M251.25,37.68v1.89h1.63v.67h-1.63v4.82a1.57,1.57,0,0,0,.26,1,.88.88,0,0,0,.7.3l.39,0,.43-.06.12.61a2.12,2.12,0,0,1-.5.14,3.62,3.62,0,0,1-.59,0,1.53,1.53,0,0,1-1.21-.49,2.32,2.32,0,0,1-.43-1.56V40.24h-1.28v-.67h1.28V37.68Z" class="e014fcf1-68c8-40d3-8e9e-8ee1aa8b35db" transform="translate(-5.96 -9.08)"/><path d="M259.3,47c-.05-.25-.09-.47-.12-.65a4.53,4.53,0,0,1,0-.55,3.25,3.25,0,0,1-1.09,1,3.1,3.1,0,0,1-1.54.38,2.32,2.32,0,0,1-1.68-.57,2,2,0,0,1-.6-1.54,1.9,1.9,0,0,1,.89-1.64,4.12,4.12,0,0,1,2.39-.62h1.63v-.92a1.58,1.58,0,0,0-.51-1.24,2.08,2.08,0,0,0-1.43-.45,2.27,2.27,0,0,0-1.42.43,1.28,1.28,0,0,0-.56,1.05h-.75v0a1.77,1.77,0,0,1,.76-1.48,3.09,3.09,0,0,1,2-.65,3,3,0,0,1,2,.62,2.19,2.19,0,0,1,.75,1.78v3.64a6.21,6.21,0,0,0,0,.76,4.73,4.73,0,0,0,.15.73Zm-2.69-.58a2.93,2.93,0,0,0,1.56-.41,2.45,2.45,0,0,0,1-1.06V43.37H257.5a3,3,0,0,0-1.78.47,1.41,1.41,0,0,0-.67,1.18,1.27,1.27,0,0,0,.41,1A1.62,1.62,0,0,0,256.61,46.39Z" class="e014fcf1-68c8-40d3-8e9e-8ee1aa8b35db" transform="translate(-5.96 -9.08)"/></svg>